<svg id="레이어_1" data-name="레이어 1" xmlns="http://www.w3.org/2000/svg" viewBox="0 0 308.96 73.83"><defs><style>.cls-1,.cls-4,.cls-5{fill:none;}.cls-2{fill:#fff;}.cls-3,.cls-6{fill:#cb6e6d;}.cls-3{opacity:0.6;isolation:isolate;}.cls-4{stroke:#f2f2f2;}.cls-4,.cls-5,.cls-6,.cls-7,.cls-8{stroke-linecap:round;stroke-miterlimit:10;stroke-width:2px;}.cls-5{stroke:#fff;}.cls-6{stroke:#cb6e6d;}.cls-7{fill:#731b1a;stroke:#731b1a;}.cls-8{fill:#a43f3d;stroke:#a43f3d;}</style></defs><title>corona_logo</title><rect class="cls-1" width="308.96" height="73.83"/><path class="cls-2" d="M75.05,48.06a12.08,12.08,0,0,1-4.72-4.58,13.48,13.48,0,0,1,0-13.14,12,12,0,0,1,4.74-4.59,13.73,13.73,0,0,1,6.76-1.66A14.23,14.23,0,0,1,87,25a10.92,10.92,0,0,1,4,2.74l-1.69,1.69a10,10,0,0,0-7.45-3,11,11,0,0,0-5.44,1.36,10,10,0,0,0-3.83,3.75,10.91,10.91,0,0,0,0,10.65A10.07,10.07,0,0,0,76.47,46a11,11,0,0,0,5.44,1.37,9.88,9.88,0,0,0,7.45-3L91.05,46a11,11,0,0,1-4,2.76,14.22,14.22,0,0,1-5.2,1A13.69,13.69,0,0,1,75.05,48.06Z"/><path class="cls-2" d="M98.18,48.44A9,9,0,0,1,94.72,45a10.43,10.43,0,0,1,0-9.94,9,9,0,0,1,3.46-3.42,10.55,10.55,0,0,1,9.86,0,8.9,8.9,0,0,1,3.44,3.42,10.6,10.6,0,0,1,0,9.94A8.92,8.92,0,0,1,108,48.44a10.33,10.33,0,0,1-9.86,0Zm8.55-1.94a6.41,6.41,0,0,0,2.5-2.61,8.68,8.68,0,0,0,0-7.7,6.57,6.57,0,0,0-2.5-2.62,7.67,7.67,0,0,0-7.24,0A6.54,6.54,0,0,0,97,36.19a8.5,8.5,0,0,0,0,7.7,6.46,6.46,0,0,0,2.52,2.61,7.56,7.56,0,0,0,7.24,0Z"/><path class="cls-2" d="M123.07,31.4a9.12,9.12,0,0,1,4.41-1v2.48h-.61a6,6,0,0,0-4.68,1.84,7.31,7.31,0,0,0-1.69,5.15v9.65h-2.56v-19h2.45v3.71A6.19,6.19,0,0,1,123.07,31.4Z"/><path class="cls-2" d="M134.72,48.44A9,9,0,0,1,131.26,45a10.43,10.43,0,0,1,0-9.94,9,9,0,0,1,3.46-3.42,10.55,10.55,0,0,1,9.86,0A8.88,8.88,0,0,1,148,35.07,10.58,10.58,0,0,1,148,45a9,9,0,0,1-3.44,3.43,10.33,10.33,0,0,1-9.86,0Zm8.55-1.94a6.41,6.41,0,0,0,2.5-2.61,8.68,8.68,0,0,0,0-7.7,6.57,6.57,0,0,0-2.5-2.62,7.67,7.67,0,0,0-7.24,0,6.61,6.61,0,0,0-2.52,2.62,8.5,8.5,0,0,0,0,7.7A6.52,6.52,0,0,0,136,46.5a7.56,7.56,0,0,0,7.24,0Z"/><path class="cls-2" d="M169.8,32.5a8.09,8.09,0,0,1,2.11,6v11h-2.56V38.78a6.21,6.21,0,0,0-1.48-4.5,5.53,5.53,0,0,0-4.21-1.55,6.49,6.49,0,0,0-4.84,1.82,6.86,6.86,0,0,0-1.78,5v9.94h-2.56V30.57h2.45v3.49a7.13,7.13,0,0,1,2.9-2.68,9.16,9.16,0,0,1,4.3-.95A7.72,7.72,0,0,1,169.8,32.5Z"/><path class="cls-2" d="M193.15,38.81v10.7H190.7v-3a5.85,5.85,0,0,1-2.54,2.31,8.9,8.9,0,0,1-4,.83,7.8,7.8,0,0,1-5-1.52,5.19,5.19,0,0,1-.67-7.32,5.73,5.73,0,0,1,.54-.56c1.17-1,3-1.48,5.57-1.48h6m0-2a4.4,4.4,0,0,0-1.32-2.87,5.59,5.59,0,0,0-4-1.28,9.9,9.9,0,0,0-3.45.59,8.83,8.83,0,0,0-2.85,1.64L177.77,33a10.26,10.26,0,0,1,3.46-1.89,13.62,13.62,0,0,1,4.25-.66,8,8,0,0,1,5.68,1.85,6.69,6.69,0,0,1,2,4.53m-4.82,9.87a6,6,0,0,0,2.3-2.86v-3.1H184.7q-4.86,0-4.86,3.38a3.1,3.1,0,0,0,1.26,2.62,5.77,5.77,0,0,0,3.53,1,6.76,6.76,0,0,0,3.66-1.06Z"/><path class="cls-2" d="M211.63,48.82a9.84,9.84,0,0,1-4-2.38l1-2a10,10,0,0,0,3.63,2.22,13.35,13.35,0,0,0,4.68.84A8.56,8.56,0,0,0,222,46.26,3.83,3.83,0,0,0,223.78,43a3.22,3.22,0,0,0-.92-2.41,6.25,6.25,0,0,0-2.25-1.39,36.34,36.34,0,0,0-3.7-1.06,37.75,37.75,0,0,1-4.54-1.39,7.38,7.38,0,0,1-2.9-2A5.41,5.41,0,0,1,208.26,31a6.27,6.27,0,0,1,1-3.47,6.92,6.92,0,0,1,3.1-2.51,12.76,12.76,0,0,1,5.18-.93,15.54,15.54,0,0,1,4.23.59,12.43,12.43,0,0,1,3.59,1.64l-.91,2.12a12.84,12.84,0,0,0-6.91-2.08,8.1,8.1,0,0,0-5,1.28,4,4,0,0,0-1.68,3.29,3.28,3.28,0,0,0,.92,2.43,6,6,0,0,0,2.31,1.4,36.7,36.7,0,0,0,3.72,1.06,36.71,36.71,0,0,1,4.48,1.36,7.31,7.31,0,0,1,2.9,2,5.33,5.33,0,0,1,1.19,3.66,6.19,6.19,0,0,1-1,3.47,6.86,6.86,0,0,1-3.15,2.48,13,13,0,0,1-5.22.92A16.15,16.15,0,0,1,211.63,48.82Z"/><path class="cls-2" d="M234.49,48.46A8.8,8.8,0,0,1,231,45a10.44,10.44,0,0,1,0-10,9,9,0,0,1,3.47-3.42,10.14,10.14,0,0,1,5-1.22,9.77,9.77,0,0,1,4.38.95,7.21,7.21,0,0,1,3,2.79L245,35.47a6.06,6.06,0,0,0-2.38-2.11,7.09,7.09,0,0,0-3.13-.7,7.42,7.42,0,0,0-3.69.91,6.5,6.5,0,0,0-2.55,2.62,8.54,8.54,0,0,0,0,7.72,6.48,6.48,0,0,0,2.55,2.59,7.43,7.43,0,0,0,3.69.92,7.22,7.22,0,0,0,3.13-.69A5.73,5.73,0,0,0,245,44.64l1.91,1.3a7.23,7.23,0,0,1-3.06,2.79,9.71,9.71,0,0,1-4.36,1A10.16,10.16,0,0,1,234.49,48.46Z"/><path class="cls-2" d="M263.62,36.81a4.4,4.4,0,0,0-1.32-2.87,5.59,5.59,0,0,0-4-1.28,9.9,9.9,0,0,0-3.45.59A8.73,8.73,0,0,0,252,34.89L250.85,33a10.26,10.26,0,0,1,3.46-1.89,13.62,13.62,0,0,1,4.25-.66,8,8,0,0,1,5.68,1.85,6.68,6.68,0,0,1,1.95,4.52m0,2v10.7h-2.44v-3a5.85,5.85,0,0,1-2.54,2.31,8.9,8.9,0,0,1-4,.83,7.8,7.8,0,0,1-5-1.52,5.19,5.19,0,0,1-.67-7.32,5.73,5.73,0,0,1,.54-.56c1.17-1,3-1.48,5.57-1.48h6m-2.31,7.87a6,6,0,0,0,2.31-2.86v-3.1h-5.94q-4.86,0-4.86,3.38a3.1,3.1,0,0,0,1.26,2.62,5.77,5.77,0,0,0,3.53,1,6.69,6.69,0,0,0,3.72-1Z"/><path class="cls-2" d="M288.49,32.5a8.09,8.09,0,0,1,2.11,6v11H288V38.78a6.21,6.21,0,0,0-1.48-4.5,5.53,5.53,0,0,0-4.21-1.55,6.49,6.49,0,0,0-4.84,1.82,6.86,6.86,0,0,0-1.78,5v9.94h-2.56V30.57h2.45v3.49a7.13,7.13,0,0,1,2.9-2.68,9.16,9.16,0,0,1,4.3-.95A7.71,7.71,0,0,1,288.49,32.5Z"/><path class="cls-2" d="M34.69,36.81l18.38,6.92h.06A20,20,0,0,0,34.47,16.48V36.64"/><path class="cls-3" d="M34.69,36.81l18.38,6.92h.06A20,20,0,0,0,34.47,16.48V36.64"/><path class="cls-4" d="M53.17,43.54a20,20,0,1,1-16.4-26.91"/><circle class="cls-4" cx="34.45" cy="36.49" r="12.5"/><circle class="cls-4" cx="34.45" cy="36.49" r="5"/><path class="cls-5" d="M53.17,43.54a20,20,0,1,1-16.4-26.91"/><circle class="cls-5" cx="34.45" cy="36.49" r="12.5"/><circle class="cls-5" cx="34.45" cy="36.49" r="5"/><circle class="cls-6" cx="24.82" cy="44.4" r="2.5"/><circle class="cls-7" cx="34.47" cy="16.49" r="2.5"/><circle class="cls-8" cx="53.12" cy="43.68" r="2.5"/></svg>